<?xml version="1.0" encoding="UTF-8" standalone="no"?>
<svg
   xmlns:dc="http://purl.org/dc/elements/1.1/"
   xmlns:cc="http://creativecommons.org/ns#"
   xmlns:rdf="http://www.w3.org/1999/02/22-rdf-syntax-ns#"
   xmlns:svg="http://www.w3.org/2000/svg"
   xmlns="http://www.w3.org/2000/svg"
   xmlns:sodipodi="http://sodipodi.sourceforge.net/DTD/sodipodi-0.dtd"
   xmlns:inkscape="http://www.inkscape.org/namespaces/inkscape"
   version="1.1"
   x="0px"
   y="0px"
   viewBox="0 0 76.265945 75.276756"
   enable-background="new 0 0 100 100"
   xml:space="preserve"
   id="svg2"
   inkscape:version="0.91 r13725"
   sodipodi:docname="intro.svg"
   width="76.265945"
   height="75.276756"><metadata
     id="metadata94"><rdf:RDF><cc:Work
         rdf:about=""><dc:format>image/svg+xml</dc:format><dc:type
           rdf:resource="http://purl.org/dc/dcmitype/StillImage" /><dc:title></dc:title></cc:Work></rdf:RDF></metadata><defs
     id="defs92" /><sodipodi:namedview
     pagecolor="#ffffff"
     bordercolor="#666666"
     borderopacity="1"
     objecttolerance="10"
     gridtolerance="10"
     guidetolerance="10"
     inkscape:pageopacity="0"
     inkscape:pageshadow="2"
     inkscape:window-width="1200"
     inkscape:window-height="1867"
     id="namedview90"
     showgrid="false"
     fit-margin-top="0"
     fit-margin-left="0"
     fit-margin-right="0"
     fit-margin-bottom="0"
     inkscape:zoom="1.888"
     inkscape:cx="42.815918"
     inkscape:cy="20.972939"
     inkscape:window-x="-8"
     inkscape:window-y="-8"
     inkscape:window-maximized="1"
     inkscape:current-layer="svg2" /><g
     id="g4"
     transform="translate(-7.184082,-8.196182)"><g
       id="g6"><g
         id="g8"><g
           id="g10"><g
             id="g12"><g
               id="g14"><path
                 d="m 50.074,65.101 c -0.848,-1.23 -0.957,-2.559 -0.279,-3.273 0.295,-0.306 0.699,-0.476 1.166,-0.47 0.732,-0.005 1.572,0.409 2.234,1.108 1.691,1.876 3.598,3.517 4.359,3.788 -0.348,-1.171 -4.024,-5.62 -7.449,-9.239 -1.08,-1.108 -1.227,-2.825 -0.307,-3.803 0.424,-0.44 0.992,-0.674 1.607,-0.65 0.755,0.021 1.498,0.416 2.045,1.068 2.697,3.447 6.08,7.174 7.361,7.866 -0.377,-1.444 -3.926,-6.222 -7.355,-10.157 -0.988,-1.203 -0.988,-2.954 0.006,-3.87 0.456,-0.421 1.055,-0.619 1.69,-0.574 0.761,0.055 1.493,0.465 2.024,1.119 2.861,4.025 6.287,8.416 7.99,10.074 -0.875,-1.752 -3.239,-5.141 -5.472,-8.001 -0.522,-0.792 -0.749,-1.579 -0.619,-2.333 0.104,-0.567 0.407,-1.043 0.853,-1.341 0.447,-0.298 1.004,-0.394 1.57,-0.277 0.752,0.163 1.455,0.668 1.923,1.421 2.917,4.956 6.669,10.481 7.659,10.791 0.443,-0.063 1.715,-1.804 2.467,-2.851 1.719,-2.352 3.34,-4.58 5.012,-3.866 0.823,0.349 1.309,0.8 1.477,1.377 0.247,0.833 -0.269,1.593 -0.678,2.198 -0.126,0.178 -0.25,0.359 -0.337,0.534 -0.119,0.214 -0.345,0.592 -0.643,1.062 -0.862,1.395 -2.874,4.652 -2.747,5.845 0.23,2.184 1.259,4.484 2.131,6.477 0.385,0.877 0.895,1.659 1.326,2.506 0.317,0.63 0.576,0.953 1.062,1.48 0.585,0.631 0.812,1.386 1.321,2.06 0.901,1.202 2.769,1.603 1.612,3.604 -2.551,-1.619 -4.045,-4.885 -5.769,-7.455 -0.837,-1.208 -2.868,-6.651 -3.069,-8.525 -0.168,-1.538 1.363,-4.163 2.953,-6.72 0.263,-0.438 0.48,-0.786 0.584,-0.987 0.119,-0.213 0.262,-0.438 0.422,-0.664 0.219,-0.324 0.552,-0.815 0.494,-1.02 -0.039,-0.12 -0.234,-0.298 -0.685,-0.489 -0.655,-0.276 -2.401,2.12 -3.338,3.409 -1.448,1.991 -2.601,3.569 -3.809,3.397 -1.88,-0.261 -6.665,-8.088 -8.636,-11.437 -0.242,-0.381 -0.641,-0.704 -1.028,-0.784 -0.14,-0.023 -0.335,-0.04 -0.503,0.075 -0.131,0.084 -0.217,0.231 -0.248,0.424 -0.069,0.381 0.065,0.896 0.352,1.246 1.896,2.426 6.314,8.302 6.096,10.019 -0.041,0.364 -0.227,0.574 -0.371,0.689 -0.201,0.155 -0.457,0.218 -0.723,0.178 -1.746,-0.258 -7.396,-7.976 -9.738,-11.282 -0.266,-0.319 -0.644,-0.538 -1.021,-0.565 -0.174,-0.012 -0.432,0.012 -0.641,0.206 -0.461,0.421 -0.384,1.348 0.115,1.95 3.975,4.561 8.527,10.363 7.512,12.044 -0.181,0.306 -0.495,0.493 -0.85,0.514 -1.791,0.113 -6.296,-5.276 -8.826,-8.493 -0.272,-0.331 -0.648,-0.543 -0.996,-0.554 -0.221,-0.005 -0.406,0.067 -0.549,0.218 -0.404,0.427 -0.262,1.324 0.29,1.886 5.818,6.134 8.395,9.85 7.671,11.062 -0.196,0.323 -0.514,0.524 -0.899,0.562 -1.543,0.152 -4.501,-2.933 -5.704,-4.266 -0.432,-0.456 -0.922,-0.662 -1.211,-0.662 -0.285,0.176 -0.261,0.967 0.377,1.73 1.654,1.408 3.311,2.817 4.966,4.225 3.067,2.608 6.139,5.219 9.204,7.83 1.326,1.126 2.65,2.252 3.974,3.38 0.623,0.529 3.058,2.073 3.204,2.793 0.447,2.201 -3.291,-1.016 -3.667,-1.329 -1.101,-0.925 -2.199,-1.847 -3.3,-2.769 L 50.341,65.455 C 50.247,65.335 50.16,65.22 50.074,65.101 Z"
                 id="path16"
                 inkscape:connector-curvature="0"
                 style="fill:#000000" /></g></g></g></g><g
         id="g18"><g
           id="g20"><g
             id="g22"><g
               id="g24"><path
                 d="M 18.801,34.786 C 18.338,34.16 17.931,33.507 17.63,32.816 15.721,28.425 13.572,23.714 11.938,21.592 11.227,20.677 10.465,19.793 9.712,18.91 9.018,18.106 8.296,17.311 7.658,16.458 6.963,15.529 6.982,15.074 8.053,14.831 c 0.896,1.063 1.754,2.159 2.659,3.219 0.771,0.898 1.548,1.8 2.269,2.727 1.658,2.172 3.821,6.821 5.861,11.506 0.68,1.57 2.001,2.946 3.281,4.277 l 0.723,0.763 c 1.674,1.786 2.917,3.356 4.737,2.509 0.539,-0.253 0.792,-1.353 1.312,-1.636 0.924,-0.507 2.678,0.101 3.727,-0.238 2.404,-0.771 3.124,-0.493 4.594,0.871 l 0.283,0.261 c 1.568,1.436 3.023,2.986 4.25,4.312 0.836,0.905 1.836,1.516 2.38,1.449 0.116,-0.012 0.251,-0.059 0.384,-0.305 0.416,-0.753 -0.506,-2.633 -2.305,-4.698 -0.43,-0.495 -0.702,-0.792 -0.92,-1.03 -0.453,-0.493 -0.681,-0.739 -1.505,-1.852 -0.419,-0.562 -0.87,-1.101 -1.313,-1.634 -0.557,-0.667 -1.121,-1.347 -1.64,-2.073 -0.066,-0.104 -0.167,-0.229 -0.28,-0.372 -0.645,-0.789 -1.125,-1.451 -1.084,-2.106 0.041,-0.569 0.309,-1.025 0.751,-1.293 0.628,-0.386 1.424,-0.263 1.919,-0.046 2.855,1.269 5.574,2.853 8.21,4.392 2.685,1.563 3.727,1.638 4.149,1.437 0.071,-0.035 0.254,-0.125 0.326,-0.587 0.073,-0.459 -0.774,-1.311 -2.518,-2.537 L 47.93,31.88 C 46.998,31.197 46.035,30.54 45.069,29.927 44.108,29.316 43.061,28.829 41.954,28.308 39.856,27.32 37.683,26.3 36.11,24.398 c -0.811,-0.971 -1.129,-2.203 -1.428,-3.373 -0.12,-0.484 -0.242,-0.965 -0.404,-1.42 -0.568,-1.61 -1.623,-2.686 -3.63,-3.702 -1.606,-0.815 -3.313,-1.205 -5.114,-1.615 -1.343,-0.305 -2.729,-0.619 -4.076,-1.128 -0.664,-0.251 -1.317,-0.541 -1.97,-0.816 -0.499,-0.21 -1.075,-0.488 -1.511,-0.805 -0.312,-0.231 -0.623,-0.475 -0.973,-0.641 -0.445,-0.211 -0.889,-0.419 -1.335,-0.619 -0.504,-0.229 -2.421,-0.745 -2.5,-1.278 -0.292,-1.943 4.25,0.162 4.888,0.795 0,0 1.072,1.073 3.869,2.125 1.261,0.478 2.602,0.784 3.9,1.082 1.797,0.409 3.662,0.835 5.419,1.722 1.635,0.824 3.413,2 4.278,4.442 0.172,0.494 0.306,1.013 0.439,1.538 0.271,1.071 0.523,2.094 1.162,2.853 1.385,1.675 3.334,2.587 5.389,3.557 1.1,0.513 2.23,1.047 3.262,1.697 0.991,0.629 1.979,1.306 2.936,2.005 l 0.354,0.248 c 1.589,1.123 3.27,2.434 3.061,3.817 -0.143,0.954 -0.656,1.389 -1.058,1.583 -1.372,0.654 -3.435,-0.349 -5.275,-1.419 -2.715,-1.587 -5.401,-3.154 -8.193,-4.39 -0.245,-0.111 -0.554,-0.125 -0.703,-0.032 -0.029,0.017 -0.096,0.061 -0.108,0.25 0.02,0.231 0.561,0.902 0.786,1.188 0.136,0.172 0.26,0.321 0.343,0.442 0.485,0.694 1.025,1.338 1.564,1.981 0.464,0.556 0.929,1.113 1.359,1.692 0.787,1.062 0.985,1.277 1.422,1.75 0.22,0.247 0.503,0.554 0.941,1.058 1.346,1.542 3.451,4.403 2.471,6.198 -0.396,0.72 -0.973,0.932 -1.387,0.983 -1.18,0.146 -2.59,-0.869 -3.51,-1.865 -1.207,-1.306 -2.639,-2.83 -4.166,-4.234 L 36.314,39.8 c -1.543,-1.437 -2.144,-1.436 -3.731,-0.925 -0.938,0.298 -2.146,-0.02 -3.054,0.48 -0.543,0.298 -1.092,0.594 -1.651,0.854 -2.887,1.348 -4.612,-0.497 -5.995,-1.981 l -0.715,-0.749 c -0.794,-0.823 -1.647,-1.715 -2.367,-2.693 z"
                 id="path26"
                 inkscape:connector-curvature="0"
                 style="fill:#000000" /></g></g></g></g><g
         id="g28"><g
           id="g30"><g
             id="g32"><g
               id="g34"><path
                 d="m 23.801,31.551 c 0.914,1.666 2.654,2.682 3.926,4.01 0.887,0.923 5.254,5.297 6.123,1.673 0.248,-1.044 -0.446,-1.973 -0.946,-2.755 -0.956,-1.467 -2.136,-2.719 -3.231,-4.066 -0.786,-0.961 -1.852,-2.375 -3.156,-2.677 -1.81,-0.417 -3.562,2.28 -2.716,3.815 z"
                 id="path36"
                 inkscape:connector-curvature="0"
                 style="fill:none" /></g></g></g><g
           id="g38"><g
             id="g40"><g
               id="g42"><path
                 d="m 32.435,40.057 c -1.94,0 -4.185,-1.914 -5.726,-3.519 -0.411,-0.43 -0.897,-0.844 -1.321,-1.199 -0.761,-0.646 -1.618,-1.375 -2.305,-2.304 -0.198,-0.265 -0.374,-0.541 -0.52,-0.816 -0.783,-1.413 -0.275,-3.179 0.579,-4.296 0.941,-1.25 2.372,-1.862 3.688,-1.562 1.682,0.387 2.883,1.865 3.759,2.943 l 0.178,0.221 c 0.302,0.368 0.61,0.738 0.923,1.099 0.829,0.978 1.676,1.977 2.396,3.087 l 0.118,0.182 c 0.552,0.84 1.388,2.112 1.016,3.669 -0.408,1.712 -1.466,2.239 -2.06,2.401 -0.23,0.062 -0.474,0.094 -0.725,0.094 z M 26.15,27.786 c -0.652,0 -1.312,0.38 -1.813,1.044 -0.542,0.709 -0.914,1.846 -0.454,2.675 0.123,0.233 0.26,0.443 0.404,0.636 0.586,0.793 1.339,1.433 2.067,2.052 0.45,0.377 0.974,0.823 1.438,1.308 2.067,2.154 3.939,3.302 4.974,3.016 0.486,-0.132 0.82,-0.57 0.995,-1.302 0.222,-0.927 -0.352,-1.799 -0.812,-2.5 l -0.12,-0.185 c -0.67,-1.031 -1.449,-1.951 -2.273,-2.924 -0.321,-0.371 -0.64,-0.752 -0.953,-1.135 l -0.167,-0.208 c -0.75,-0.922 -1.763,-2.168 -2.939,-2.439 -0.112,-0.025 -0.229,-0.038 -0.347,-0.038 z"
                 id="path44"
                 inkscape:connector-curvature="0"
                 style="fill:#000000" /></g></g></g></g><g
         id="g46"><g
           id="g48"><g
             id="g50"><g
               id="g52"><path
                 d="m 26.479,40.383 c 0.83,0.169 1.596,-0.023 2.132,-0.815 1.133,-1.664 -0.557,-3.073 -1.582,-3.94 -1.067,-0.905 -2.347,-3.055 -4.041,-2.654 -1.395,0.336 -1.972,1.757 -1.602,2.963 0.355,1.178 2.95,4.009 5.093,4.446 z"
                 id="path54"
                 inkscape:connector-curvature="0"
                 style="fill:none" /></g></g></g><g
           id="g56"><g
             id="g58"><g
               id="g60"><path
                 d="m 27.001,41.848 c -0.262,0 -0.531,-0.028 -0.804,-0.083 -1.988,-0.407 -4.104,-2.244 -5.321,-3.884 -0.434,-0.586 -0.709,-1.089 -0.841,-1.537 -0.312,-1.016 -0.191,-2.126 0.329,-3.039 0.494,-0.863 1.309,-1.467 2.294,-1.702 0.247,-0.059 0.505,-0.144 0.748,-0.089 0.678,0.152 1.866,2.399 2.705,3.313 l 1.14,0.756 c 0.214,0.231 0.721,0.499 0.916,0.667 0.474,0.396 0.821,0.393 1.334,1.083 1.018,1.373 1.17,1.71 0.28,3.026 -0.658,0.962 -1.645,1.489 -2.78,1.489 z m -3.595,-8.834 c -0.132,0 -0.267,0.016 -0.399,0.048 -0.579,0.138 -1.055,0.489 -1.34,0.988 -0.316,0.554 -0.389,1.233 -0.196,1.862 0.058,0.194 0.209,0.533 0.61,1.077 1.044,1.407 2.896,2.996 4.415,3.306 0.855,0.173 1.571,-0.087 2.046,-0.779 0.524,-0.777 0.472,-1.573 -0.164,-2.431 -0.405,-0.547 -0.961,-1.011 -1.407,-1.384 -0.243,-0.208 -0.487,-0.469 -0.744,-0.748 l -0.115,-0.125 c -0.704,-0.767 -1.664,-1.814 -2.706,-1.814 z"
                 id="path62"
                 inkscape:connector-curvature="0"
                 style="fill:#000000" /></g></g></g></g></g><g
       id="g64"><g
         id="g66"><g
           id="g68"><g
             id="g70"><g
               id="g72"><path
                 d="m 23.105,21.306 0.686,-1.126 c 0.732,0.446 2.012,0.727 3.25,1.003 1.215,0.271 2.367,0.524 3.197,0.951 2.068,1.07 1.539,2.704 1.152,3.905 -0.096,0.292 -0.195,0.599 -0.263,0.903 -0.121,0.565 -0.053,1.153 0.188,1.5 0.137,0.163 0.317,0.299 0.568,0.332 0.891,0.118 2.002,-1.306 2.6,-2.075 l 0.248,-0.314 c 0.189,-0.237 0.348,-0.519 0.503,-0.79 0.297,-0.524 0.64,-1.117 1.211,-1.542 l 0.788,1.06 c -0.35,0.265 -0.594,0.688 -0.854,1.14 -0.189,0.329 -0.383,0.667 -0.621,0.961 l -0.231,0.298 c -0.818,1.047 -2.175,2.793 -3.818,2.574 -0.616,-0.082 -1.109,-0.377 -1.478,-0.89 -0.451,-0.648 -0.603,-1.597 -0.393,-2.536 0.076,-0.349 0.184,-0.697 0.292,-1.026 0.429,-1.316 0.522,-1.799 -0.5,-2.321 -0.68,-0.349 -1.796,-0.599 -2.88,-0.838 -1.337,-0.3 -2.726,-0.606 -3.645,-1.169 z"
                 id="path74"
                 inkscape:connector-curvature="0"
                 style="fill:#000000" /></g></g></g></g><g
         id="g76"><g
           id="g78"><g
             id="g80"><g
               id="g82"><path
                 d="m 24.932,21.957 c -0.068,0 -0.143,-0.015 -0.212,-0.037 l -2.009,-0.702 c -0.334,-0.117 -0.51,-0.483 -0.393,-0.817 0.117,-0.334 0.637,-0.549 0.973,-0.431 l 1.852,0.737 c 0.334,0.119 0.512,0.484 0.395,0.818 -0.095,0.266 -0.341,0.432 -0.606,0.432 z"
                 id="path84"
                 inkscape:connector-curvature="0"
                 style="fill:#000000" /></g></g></g></g></g></g></svg>