<?xml version="1.0" encoding="UTF-8" standalone="no"?>
<svg
   xmlns:dc="http://purl.org/dc/elements/1.1/"
   xmlns:cc="http://creativecommons.org/ns#"
   xmlns:rdf="http://www.w3.org/1999/02/22-rdf-syntax-ns#"
   xmlns:svg="http://www.w3.org/2000/svg"
   xmlns="http://www.w3.org/2000/svg"
   xmlns:sodipodi="http://sodipodi.sourceforge.net/DTD/sodipodi-0.dtd"
   xmlns:inkscape="http://www.inkscape.org/namespaces/inkscape"
   version="1.1"
   x="0px"
   y="0px"
   viewBox="0 0 84.862893 44.015999"
   enable-background="new 0 0 84.863 90"
   xml:space="preserve"
   id="svg2"
   inkscape:version="0.91 r13725"
   sodipodi:docname="lizard.svg"
   width="84.862892"
   height="44.015999"><metadata
     id="metadata14"><rdf:RDF><cc:Work
         rdf:about=""><dc:format>image/svg+xml</dc:format><dc:type
           rdf:resource="http://purl.org/dc/dcmitype/StillImage" /><dc:title></dc:title></cc:Work></rdf:RDF></metadata><defs
     id="defs12" /><sodipodi:namedview
     pagecolor="#ffffff"
     bordercolor="#666666"
     borderopacity="1"
     objecttolerance="10"
     gridtolerance="10"
     guidetolerance="10"
     inkscape:pageopacity="0"
     inkscape:pageshadow="2"
     inkscape:window-width="1200"
     inkscape:window-height="1867"
     id="namedview10"
     showgrid="false"
     fit-margin-top="0"
     fit-margin-left="0"
     fit-margin-right="0"
     fit-margin-bottom="0"
     inkscape:zoom="2.0977778"
     inkscape:cx="42.431388"
     inkscape:cy="10.758"
     inkscape:window-x="-8"
     inkscape:window-y="-8"
     inkscape:window-maximized="1"
     inkscape:current-layer="svg2" /><path
     d="M 84.862889,6.996 C 84.860889,3.133 81.729889,0 77.868889,0 l -36.921,0 c 0,0 -0.001,0 -0.002,0 l -24.89,0 C 7.1908889,0.002 0.00288889,7.188 8.8888889e-4,16.056 l 0,8.658 c -0.001999999,0.051 0,0.131 0,0.194 C -0.01711111,29.787 2.5808889,33.552 6.1688889,36.171 16.920889,43.99 37.025889,43.962 37.147889,44.016 l 0.009,0 c 0.327,0 0.638,-0.107 0.896,-0.308 4.198,-3.279 7.908,-5.031 10.547,-5.966 1.317,-0.467 2.368,-0.729 3.076,-0.871 0.354,-0.072 0.621,-0.113 0.794,-0.139 0.175,-0.023 0.225,-0.024 0.225,-0.026 0.524,-0.043 0.987,-0.367 1.206,-0.849 0.646,-1.434 0.968,-2.719 0.968,-3.903 0.028,-2.005 -1.025,-3.604 -2.327,-4.49 -2.45,-1.683 -5.584,-1.756 -7.072,-1.784 -0.499,0 -0.811,0.021 -0.838,0.024 -0.184,0.012 -0.369,0.062 -0.533,0.144 -5.398,2.645 -8.658,3.319 -10.42,3.313 -1.157,-0.004 -1.654,-0.262 -1.855,-0.396 -0.019,-0.012 -0.034,-0.023 -0.048,-0.035 l -0.636,-3.917 43.489,0 c 3.864,-0.002 6.994,-3.133 6.995,-6.997 -0.012,-1.549 -0.5,-3.042 -1.353,-4.268 2.675,-0.982 4.589,-3.534 4.592,-6.552 z m -5.536,3.825 -30.266,0 c -0.802,0 -1.449,0.649 -1.449,1.45 0,0.801 0.647,1.449 1.449,1.449 l 27.028,0 c 1.455,0.558 2.654,2.331 2.632,4.095 -0.004,2.263 -1.836,4.095 -4.097,4.097 l -45.191,0 c -0.425,0 -0.829,0.188 -1.104,0.511 -0.275,0.323 -0.395,0.75 -0.327,1.171 l 0.964,5.948 0.086,0.306 c 0.096,0.443 1.396,2.285 4.624,2.211 2.423,-0.007 5.943,-0.833 11.421,-3.475 0.098,-0.003 0.222,-0.005 0.37,-0.005 1.241,-0.028 4.041,0.231 5.396,1.249 0.719,0.547 1.081,1.05 1.107,2.127 0,0.508 -0.112,1.168 -0.416,1.988 -2.157,0.383 -7.924,1.847 -14.876,7.166 -0.816,-0.022 -2.6,-0.09 -4.97,-0.3 -4.941,-0.435 -12.374,-1.512 -18.406,-4.011 -3.017,-1.245 -5.6670001,-2.841 -7.5010001,-4.797 -1.833,-1.966 -2.892,-4.212 -2.901,-7.093 l 0,-0.154 0,-8.698 c 0.013,-7.268 5.893,-13.145 13.1570001,-13.158 l 19.572,0 c 0.007,0 0.012,0.002 0.019,0.002 l 42.221,0 c 2.261,0.002 4.092,1.834 4.096,4.097 0.002,1.746 -1.097,3.235 -2.638,3.824 z"
     id="path4"
     inkscape:connector-curvature="0" /></svg>