<?xml version="1.0" encoding="UTF-8" standalone="no"?>
<svg
   xmlns:dc="http://purl.org/dc/elements/1.1/"
   xmlns:cc="http://creativecommons.org/ns#"
   xmlns:rdf="http://www.w3.org/1999/02/22-rdf-syntax-ns#"
   xmlns:svg="http://www.w3.org/2000/svg"
   xmlns="http://www.w3.org/2000/svg"
   xmlns:sodipodi="http://sodipodi.sourceforge.net/DTD/sodipodi-0.dtd"
   xmlns:inkscape="http://www.inkscape.org/namespaces/inkscape"
   version="1.1"
   x="0px"
   y="0px"
   viewBox="0 0 62.954953 88.650002"
   enable-background="new 0 0 84.863 90"
   xml:space="preserve"
   id="svg2"
   inkscape:version="0.91 r13725"
   sodipodi:docname="paper.svg"
   width="62.954952"
   height="88.650002"><metadata
     id="metadata14"><rdf:RDF><cc:Work
         rdf:about=""><dc:format>image/svg+xml</dc:format><dc:type
           rdf:resource="http://purl.org/dc/dcmitype/StillImage" /><dc:title></dc:title></cc:Work></rdf:RDF></metadata><defs
     id="defs12" /><sodipodi:namedview
     pagecolor="#ffffff"
     bordercolor="#666666"
     borderopacity="1"
     objecttolerance="10"
     gridtolerance="10"
     guidetolerance="10"
     inkscape:pageopacity="0"
     inkscape:pageshadow="2"
     inkscape:window-width="1200"
     inkscape:window-height="1867"
     id="namedview10"
     showgrid="false"
     fit-margin-top="0"
     fit-margin-left="0"
     fit-margin-right="0"
     fit-margin-bottom="0"
     inkscape:zoom="5.9334116"
     inkscape:cx="15.233595"
     inkscape:cy="36.089521"
     inkscape:window-x="-8"
     inkscape:window-y="-8"
     inkscape:window-maximized="1"
     inkscape:current-layer="svg2" /><path
     d="m 62.950951,60.151 0,-39.089 c 0,-3.862 -3.129,-6.996 -6.992,-6.996 -1.42,10e-4 -2.727,0.439 -3.828,1.163 l 0,-4.447 c 0,-3.864 -3.133,-6.994 -6.996,-6.996 -1.527,10e-4 -2.938,0.495 -4.088,1.327 -0.822,-2.949 -3.521,-5.113 -6.73,-5.113 -3.861,0.001 -6.991,3.131 -6.993,6.997 l 0,1.201 c -1.102,-0.725 -2.408,-1.162 -3.825,-1.164 -3.864,0.002 -6.995,3.131 -6.997,6.995 l 0,22.014 c -0.898,-1.271 -2.475,-2.286 -4.441,-2.26 -1.185,0.002 -2.4740001,0.322 -3.9080001,0.975 -0.479,0.218 -0.801,0.677 -0.843,1.203 0,0 -0.004,0.05 -0.028,0.224 -0.17,1.214 -1.236,7.072 -6.97400001,14.417 -0.226,0.288 -0.333,0.648 -0.303,1.013 0.008,0.063 0.745,9.061 3.72000001,18.184 1.494,4.564 3.536,9.17 6.4370001,12.739 2.872,3.55 6.756,6.112 11.62,6.112 l 0.029,0 c 0.094,-0.002 0.144,-0.002 0.158,-0.002 l 24.926,0.002 c 8.869,-0.002 16.058,-7.189 16.058,-16.055 l 0,-12.425 c 0,-0.007 0.002,-0.013 0.002,-0.019 l -0.004,0 z m -46.45,-11.856 0,8.983 -1.17,-0.347 c -0.121,-0.121 -0.456,-0.542 -0.479,-1.952 -0.004,-1.311 0.368,-3.452 1.649,-6.684 z m 30.394,37.457 c 0,0 -25.046,0.002 -25.083,0.002 -3.824,-0.014 -6.827,-1.912 -9.401,-5.047 C 8.5749509,76.019 6.1169509,68.639 4.7149509,62.469 c -0.707,-3.088 -1.162,-5.872 -1.442,-7.881 -0.168,-1.205 -0.27,-2.121 -0.326,-2.662 5.289,-6.932 6.744,-12.676 7.1250001,-14.828 0.818,-0.304 1.479,-0.416 1.989,-0.414 1.076,0.025 1.58,0.39 2.128,1.11 1.015,1.352 1.276,4.155 1.248,5.395 0,0.149 -0.002,0.274 -0.004,0.371 -2.645,5.475 -3.47,8.996 -3.478,11.42 -0.072,3.228 1.769,4.526 2.212,4.623 l 3.373,1.009 c 0.225,0.066 1.185,0.135 1.185,0.135 0,0 0.515,0.014 1.41,0.139 2.747,0.361 8.297,1.832 10.297,6.32 0.244,0.53 0.77,0.844 1.316,0.844 0.204,0 0.409,-0.043 0.605,-0.136 0.727,-0.334 1.045,-1.194 0.71,-1.921 -1.874,-4.04 -5.534,-6.047 -8.567,-7.058 -2.214,-0.733 -4.156,-0.972 -5.095,-1.048 l 0,-43.858 c 0.004,-2.263 1.835,-4.092 4.097,-4.096 1.746,-0.004 3.237,1.096 3.826,2.638 0,0 -0.001,31.867 -0.001,31.881 -0.003,0.802 0.64,1.453 1.44,1.457 0.8,0.005 1.454,-0.641 1.458,-1.442 l 0,-37.47 c 0.004,-2.265 1.835,-4.094 4.095,-4.098 2.263,0.004 4.093,1.833 4.097,4.098 l 0,39.627 c 0,0.799 0.649,1.449 1.449,1.449 0.801,0 1.45,-0.65 1.45,-1.449 l -0.002,0 0,-37.3 c 0.59,-1.543 2.076,-2.641 3.824,-2.639 2.264,0.004 4.094,1.835 4.098,4.097 l 0,37.354 c 0,0.799 0.648,1.45 1.449,1.45 0.801,0 1.451,-0.651 1.451,-1.45 l -0.002,0 0,-28.536 c 0.592,-1.54 2.08,-2.637 3.828,-2.635 2.262,0.004 4.09,1.834 4.094,4.097 l 0,39.093 0,12.44 c -0.013,7.265 -5.89,13.143 -13.157,13.157 z"
     id="path4"
     inkscape:connector-curvature="0" /></svg>