<?xml version="1.0" encoding="UTF-8" standalone="no"?>
<svg
   xmlns:dc="http://purl.org/dc/elements/1.1/"
   xmlns:cc="http://creativecommons.org/ns#"
   xmlns:rdf="http://www.w3.org/1999/02/22-rdf-syntax-ns#"
   xmlns:svg="http://www.w3.org/2000/svg"
   xmlns="http://www.w3.org/2000/svg"
   xmlns:sodipodi="http://sodipodi.sourceforge.net/DTD/sodipodi-0.dtd"
   xmlns:inkscape="http://www.inkscape.org/namespaces/inkscape"
   version="1.1"
   x="0px"
   y="0px"
   viewBox="0 0 67.185251 87.788001"
   enable-background="new 0 0 67.183 87.789"
   xml:space="preserve"
   id="svg2"
   inkscape:version="0.91 r13725"
   sodipodi:docname="spock.svg"
   width="67.185249"
   height="87.788002"><metadata
     id="metadata14"><rdf:RDF><cc:Work
         rdf:about=""><dc:format>image/svg+xml</dc:format><dc:type
           rdf:resource="http://purl.org/dc/dcmitype/StillImage" /><dc:title></dc:title></cc:Work></rdf:RDF></metadata><defs
     id="defs12" /><sodipodi:namedview
     pagecolor="#ffffff"
     bordercolor="#666666"
     borderopacity="1"
     objecttolerance="10"
     gridtolerance="10"
     guidetolerance="10"
     inkscape:pageopacity="0"
     inkscape:pageshadow="2"
     inkscape:window-width="1200"
     inkscape:window-height="1867"
     id="namedview10"
     showgrid="false"
     fit-margin-top="0"
     fit-margin-left="0"
     fit-margin-right="0"
     fit-margin-bottom="0"
     inkscape:zoom="2.1506111"
     inkscape:cx="33.592717"
     inkscape:cy="32.919874"
     inkscape:window-x="-8"
     inkscape:window-y="-8"
     inkscape:window-maximized="1"
     inkscape:current-layer="svg2" /><path
     d="m 61.165218,10.847 c -0.328,-0.045 -0.656,-0.069 -0.982,-0.069 -1.096,0 -2.146,0.26 -3.086,0.724 l 0.279,-1.945 c 0.045,-0.337 0.068,-0.662 0.068,-0.988 0,-3.438 -2.525,-6.425 -6.018,-6.917 -0.332,-0.047 -0.662,-0.07 -0.984,-0.07 -3.438,0 -6.424,2.526 -6.918,6.021 l -4.482,30.114 -9.219,-32.551 c -0.837,-3.104 -3.657,-5.166 -6.749,-5.166 -0.601,0 -1.213,0.079 -1.819,0.243 -3.121,0.839 -5.181,3.659 -5.181,6.752 0,0.211 0.022,0.426 0.042,0.64 -0.867,-0.378 -1.805,-0.604 -2.779,-0.604 -0.6,0 -1.212,0.077 -1.821,0.242 -3.1190004,0.84 -5.1810004,3.658 -5.1810004,6.751 0,0.599 0.077,1.209 0.242,1.818 l 4.1960004,17.213 c -0.8220004,0.145 -1.6890004,0.414 -2.6230004,0.839 -0.479,0.22 -0.801,0.679 -0.843,1.205 0,0 -0.004,0.049 -0.028,0.224 -0.17,1.214 -1.236,7.072 -6.97300001,14.419 -0.224,0.286 -0.332,0.647 -0.301,1.011 0.008,0.062 0.745,9.06 3.72000001,18.182 1.493,4.565 3.536,9.169 6.4360004,12.739 2.871,3.553 6.755,6.114 11.62,6.114 l 0.028,0 c 0.094,-0.002 0.144,-0.002 0.156,-0.002 l 24.932,0 c 8.867,0 16.055,-7.187 16.055,-16.055 l 0,-20.197 4.17,-32.804 c 0.043,-0.315 0.064,-0.642 0.063,-0.963 -0.001,-3.44 -2.528,-6.426 -6.02,-6.92 z m 3.082,7.501 -3.463,27.248 -0.729,5.746 0,0.957 -0.002,19.434 c -0.014,7.267 -5.891,13.146 -13.156,13.157 l -24.89,0.002 c -0.08,-0.004 -0.162,0 -0.198,0 -3.824,-0.012 -6.827,-1.91 -9.4,-5.045 C 8.5732176,75.159 6.1162176,67.78 4.7142176,61.609 c -0.707,-3.086 -1.162,-5.87 -1.441,-7.878 -0.169,-1.209 -0.272,-2.126 -0.327,-2.666 5.286,-6.933 6.743,-12.677 7.1240004,-14.83 0.533,-0.197 0.991,-0.307 1.391,-0.363 0.214,-0.031 0.417,-0.051 0.595,-0.05 0.339,0 0.617,0.048 0.856,0.124 0.525,0.172 0.913,0.483 1.278,0.987 1.014,1.35 1.278,4.154 1.248,5.395 0,0.148 -0.001,0.271 -0.004,0.369 -0.242,0.501 -0.462,0.979 -0.673,1.442 -0.3,0.662 -0.564,1.286 -0.809,1.888 -1.477,3.636 -1.99,6.202 -1.995,8.094 -0.072,3.221 1.761,4.521 2.204,4.618 l 0.13,0.047 3.249,0.962 c 0.034,0.011 0.07,0.01 0.104,0.017 0.027,0.006 0.055,0.009 0.082,0.013 0.069,0.018 0.141,0.019 0.213,0.026 0.08,0.009 0.156,0.034 0.238,0.028 0.434,0.009 2.593,0.086 4.954,0.832 2.587,0.818 5.286,2.36 6.625,5.275 0.245,0.528 0.768,0.84 1.316,0.84 0.203,0 0.41,-0.042 0.606,-0.133 0.727,-0.335 1.043,-1.195 0.709,-1.922 -1.832,-3.953 -5.393,-5.885 -8.386,-6.824 -1.972,-0.618 -3.74,-0.837 -4.824,-0.916 l -0.893,-4.976 -0.385,-2.144 -0.685,-3.815 c -0.012,-0.065 -0.028,-0.131 -0.048,-0.193 0.075,-0.171 0.152,-0.343 0.232,-0.519 0.242,-0.531 0.493,-1.071 0.772,-1.64 0.084,-0.173 0.132,-0.352 0.144,-0.543 0.002,-0.026 0.021,-0.333 0.021,-0.827 -0.028,-1.489 -0.102,-4.626 -1.785,-7.074 -0.629,-0.892 -1.552,-1.686 -2.758,-2.067 -0.002,-10e-4 -0.004,-10e-4 -0.007,-0.002 L 9.3852176,15.122 c -0.108,-0.392 -0.151,-0.746 -0.151,-1.096 0,-1.803 1.2070004,-3.465 3.0380004,-3.952 0.357,-0.098 0.712,-0.143 1.065,-0.143 1.803,0 3.463,1.207 3.953,3.037 l 6.341,22.432 2.66,9.667 c 0.178,0.643 0.761,1.064 1.397,1.064 0.127,0 0.255,-0.017 0.383,-0.052 0.771,-0.212 1.226,-1.012 1.014,-1.781 l -0.412,-1.498 c 0,-0.131 -0.01,-0.263 -0.047,-0.395 l -0.002,0 -2.19,-7.747 -7.324,-26.61 c -0.094,-0.35 -0.139,-0.704 -0.139,-1.053 0,-1.805 1.208,-3.467 3.037,-3.954 0.358,-0.097 0.711,-0.144 1.065,-0.144 1.804,0.002 3.468,1.208 3.955,3.038 l 10.707,37.8 c 0.207,0.726 0.932,1.158 1.658,1.022 0.021,0.005 0.041,0.014 0.063,0.016 0.072,0.011 0.145,0.017 0.215,0.017 0.707,0 1.326,-0.517 1.436,-1.235 l -0.002,-0.002 5.288,-35.533 c 0.287,-2.062 2.045,-3.54 4.049,-3.54 0.191,0 0.383,0.012 0.576,0.041 2.049,0.285 3.527,2.043 3.527,4.049 0,0.185 -0.012,0.382 -0.041,0.589 l -0.906,6.286 c -0.152,0.433 -0.268,0.886 -0.332,1.358 l -2.713,19.761 -0.543,3.762 c -0.014,0.093 -0.016,0.186 -0.012,0.276 l -0.4,2.917 c -0.109,0.794 0.445,1.524 1.238,1.633 0.791,0.108 1.523,-0.446 1.633,-1.238 l 0.93,-6.778 3.016,-20.921 c 0.623,-1.513 2.104,-2.54 3.768,-2.54 0.188,0 0.379,0.014 0.574,0.042 2.049,0.284 3.531,2.044 3.531,4.051 0,0.193 -0.014,0.386 -0.041,0.58 z m -49.021,33.026 0.885,4.927 -0.777,-0.229 c -0.12,-0.121 -0.456,-0.544 -0.476,-1.952 -0.003,-0.681 0.095,-1.584 0.368,-2.746 z"
     id="path4"
     inkscape:connector-curvature="0" /></svg>